<svg width="21" height="21" viewBox="0 0 21 21" fill="none" xmlns="http://www.w3.org/2000/svg">
<path opacity="0.5" d="M19.021 14H5.021C4.75578 14 4.50143 13.8946 4.31389 13.7071C4.12635 13.5196 4.021 13.2652 4.021 13C4.021 12.7348 4.12635 12.4804 4.31389 12.2929C4.50143 12.1054 4.75578 12 5.021 12H15.461C16.1296 12 16.7791 11.7767 17.3064 11.3654C17.8336 10.9542 18.2083 10.3786 18.371 9.73L20.021 3.24C20.0584 3.09241 20.0617 2.93821 20.0305 2.78917C19.9993 2.64013 19.9345 2.50018 19.841 2.38C19.7437 2.25673 19.6188 2.1581 19.4764 2.09208C19.3339 2.02606 19.1779 1.99452 19.021 2H4.781C4.57468 1.41645 4.19293 0.910998 3.68806 0.552938C3.1832 0.194879 2.57994 0.00173951 1.961 0H1.021C0.75578 0 0.501426 0.105357 0.313889 0.292893C0.126353 0.48043 0.0209961 0.734784 0.0209961 1C0.0209961 1.26522 0.126353 1.51957 0.313889 1.70711C0.501426 1.89464 0.75578 2 1.021 2H1.961C2.18943 1.99334 2.41325 2.06513 2.5952 2.20341C2.77715 2.34169 2.90625 2.53812 2.961 2.76L3.021 3.24L4.751 10C3.95535 10.0358 3.20651 10.3862 2.66922 10.9741C2.13192 11.5621 1.85019 12.3394 1.886 13.135C1.9218 13.9306 2.27221 14.6795 2.86014 15.2168C3.44806 15.7541 4.22535 16.0358 5.021 16H5.201C5.03653 16.4531 4.98368 16.9392 5.04693 17.4171C5.11017 17.895 5.28764 18.3506 5.56431 18.7454C5.84099 19.1401 6.20871 19.4624 6.63635 19.6849C7.06399 19.9074 7.53894 20.0235 8.021 20.0235C8.50305 20.0235 8.97801 19.9074 9.40564 19.6849C9.83328 19.4624 10.201 19.1401 10.4777 18.7454C10.7543 18.3506 10.9318 17.895 10.9951 17.4171C11.0583 16.9392 11.0055 16.4531 10.841 16H13.201C13.0365 16.4531 12.9837 16.9392 13.0469 17.4171C13.1102 17.895 13.2876 18.3506 13.5643 18.7454C13.841 19.1401 14.2087 19.4624 14.6363 19.6849C15.064 19.9074 15.5389 20.0235 16.021 20.0235C16.503 20.0235 16.978 19.9074 17.4056 19.6849C17.8333 19.4624 18.201 19.1401 18.4777 18.7454C18.7544 18.3506 18.9318 17.895 18.9951 17.4171C19.0583 16.9392 19.0055 16.4531 18.841 16H19.021C19.2862 16 19.5406 15.8946 19.7281 15.7071C19.9156 15.5196 20.021 15.2652 20.021 15C20.021 14.7348 19.9156 14.4804 19.7281 14.2929C19.5406 14.1054 19.2862 14 19.021 14ZM17.741 4L16.431 9.24C16.3762 9.46188 16.2471 9.65831 16.0652 9.79659C15.8833 9.93487 15.6594 10.0067 15.431 10H6.801L5.301 4H17.741ZM8.021 18C7.82322 18 7.62987 17.9414 7.46543 17.8315C7.30098 17.7216 7.1728 17.5654 7.09712 17.3827C7.02143 17.2 7.00163 16.9989 7.04021 16.8049C7.0788 16.6109 7.17404 16.4327 7.31389 16.2929C7.45374 16.153 7.63192 16.0578 7.82591 16.0192C8.01989 15.9806 8.22095 16.0004 8.40368 16.0761C8.58641 16.1518 8.74258 16.28 8.85247 16.4444C8.96235 16.6089 9.021 16.8022 9.021 17C9.021 17.2652 8.91564 17.5196 8.7281 17.7071C8.54057 17.8946 8.28621 18 8.021 18ZM16.021 18C15.8232 18 15.6299 17.9414 15.4654 17.8315C15.301 17.7216 15.1728 17.5654 15.0971 17.3827C15.0214 17.2 15.0016 16.9989 15.0402 16.8049C15.0788 16.6109 15.174 16.4327 15.3139 16.2929C15.4537 16.153 15.6319 16.0578 15.8259 16.0192C16.0199 15.9806 16.221 16.0004 16.4037 16.0761C16.5864 16.1518 16.7426 16.28 16.8525 16.4444C16.9623 16.6089 17.021 16.8022 17.021 17C17.021 17.2652 16.9156 17.5196 16.7281 17.7071C16.5406 17.8946 16.2862 18 16.021 18Z" fill="#232323" fill-opacity="0.7"/>
</svg>
