<svg width="14" height="14" viewBox="0 0 14 14" fill="none" xmlns="http://www.w3.org/2000/svg">
<path d="M11.6667 0H2.33333C1.71449 0 1.121 0.221249 0.683418 0.615075C0.245833 1.0089 0 1.54304 0 2.1V9.79999C0 10.3569 0.245833 10.8911 0.683418 11.2849C1.121 11.6787 1.71449 11.9 2.33333 11.9H4.34778L6.44778 13.797C6.52045 13.8619 6.60664 13.9132 6.70141 13.948C6.79617 13.9829 6.89764 14.0005 7 14C7.18538 14 7.36467 13.9404 7.50556 13.832L10.01 11.9H11.6667C12.2855 11.9 12.879 11.6787 13.3166 11.2849C13.7542 10.8911 14 10.3569 14 9.79999V2.1C14 1.54304 13.7542 1.0089 13.3166 0.615075C12.879 0.221249 12.2855 0 11.6667 0ZM12.4444 9.79999C12.4444 9.98564 12.3625 10.1637 12.2166 10.295C12.0708 10.4262 11.8729 10.5 11.6667 10.5H9.72222C9.53684 10.5 9.35756 10.5596 9.21667 10.668L7.03889 12.348L5.21889 10.703C5.14621 10.6381 5.06002 10.5868 4.96526 10.552C4.8705 10.5171 4.76903 10.4995 4.66667 10.5H2.33333C2.12705 10.5 1.92922 10.4262 1.78336 10.295C1.6375 10.1637 1.55556 9.98564 1.55556 9.79999V2.1C1.55556 1.91435 1.6375 1.7363 1.78336 1.60502C1.92922 1.47375 2.12705 1.4 2.33333 1.4H11.6667C11.8729 1.4 12.0708 1.47375 12.2166 1.60502C12.3625 1.7363 12.4444 1.91435 12.4444 2.1V9.79999Z" fill="black"/>
</svg>
