<svg width="21" height="21" viewBox="0 0 21 21" fill="none" xmlns="http://www.w3.org/2000/svg">
<path opacity="0.5" d="M19.7309 19.2899L16.0209 15.6099C17.461 13.8143 18.1584 11.5352 17.9697 9.2412C17.781 6.94721 16.7206 4.81269 15.0064 3.27655C13.2923 1.74041 11.0547 0.919414 8.75382 0.982375C6.45294 1.04534 4.26362 1.98747 2.63604 3.61505C1.00846 5.24263 0.0663314 7.43194 0.00337096 9.73283C-0.0595894 12.0337 0.761407 14.2713 2.29754 15.9854C3.83368 17.6996 5.9682 18.76 8.2622 18.9487C10.5562 19.1374 12.8353 18.44 14.6309 16.9999L18.3109 20.6799C18.4039 20.7736 18.5145 20.848 18.6363 20.8988C18.7582 20.9496 18.8889 20.9757 19.0209 20.9757C19.1529 20.9757 19.2836 20.9496 19.4055 20.8988C19.5273 20.848 19.6379 20.7736 19.7309 20.6799C19.9111 20.4934 20.0119 20.2442 20.0119 19.9849C20.0119 19.7256 19.9111 19.4764 19.7309 19.2899ZM9.0209 16.9999C7.63643 16.9999 6.28305 16.5894 5.13191 15.8202C3.98076 15.051 3.08356 13.9578 2.55374 12.6787C2.02393 11.3996 1.88531 9.99214 2.1554 8.63427C2.4255 7.27641 3.09219 6.02912 4.07115 5.05016C5.05012 4.07119 6.2974 3.4045 7.65527 3.13441C9.01314 2.86431 10.4206 3.00293 11.6997 3.53275C12.9788 4.06256 14.072 4.95977 14.8412 6.11091C15.6104 7.26206 16.0209 8.61544 16.0209 9.9999C16.0209 11.8564 15.2834 13.6369 13.9706 14.9497C12.6579 16.2624 10.8774 16.9999 9.0209 16.9999Z" fill="#232323" fill-opacity="0.7"/>
</svg>
