<svg width="18" height="14" viewBox="0 0 18 14" fill="none" xmlns="http://www.w3.org/2000/svg">
<path d="M17.3817 6.65C15.6194 2.54625 12.3042 0 8.72727 0C5.15034 0 1.83513 2.54625 0.0728341 6.65C0.0247955 6.7604 0 6.87955 0 7C0 7.12045 0.0247955 7.2396 0.0728341 7.35C1.83513 11.4537 5.15034 14 8.72727 14C12.3042 14 15.6194 11.4537 17.3817 7.35C17.4298 7.2396 17.4545 7.12045 17.4545 7C17.4545 6.87955 17.4298 6.7604 17.3817 6.65ZM8.72727 12.25C5.96169 12.25 3.34442 10.2463 1.83513 7C3.34442 3.75375 5.96169 1.75 8.72727 1.75C11.4929 1.75 14.1101 3.75375 15.6194 7C14.1101 10.2463 11.4929 12.25 8.72727 12.25ZM8.72727 3.5C8.03708 3.5 7.36238 3.70527 6.7885 4.08986C6.21463 4.47444 5.76734 5.02107 5.50322 5.66061C5.23909 6.30015 5.16998 7.00388 5.30463 7.68282C5.43928 8.36175 5.77165 8.98539 6.25969 9.47487C6.74773 9.96436 7.36953 10.2977 8.04647 10.4327C8.7234 10.5678 9.42506 10.4985 10.0627 10.2336C10.7004 9.96867 11.2454 9.52007 11.6288 8.9445C12.0123 8.36892 12.217 7.69223 12.217 7C12.217 6.07174 11.8493 5.1815 11.1949 4.52513C10.5404 3.86875 9.6528 3.5 8.72727 3.5ZM8.72727 8.75C8.38218 8.75 8.04483 8.64736 7.75789 8.45507C7.47095 8.26278 7.24731 7.98947 7.11524 7.6697C6.98318 7.34993 6.94863 6.99806 7.01595 6.65859C7.08328 6.31913 7.24946 6.00731 7.49348 5.76256C7.7375 5.51782 8.0484 5.35115 8.38687 5.28363C8.72534 5.2161 9.07617 5.25076 9.395 5.38321C9.71383 5.51566 9.98633 5.73997 10.1781 6.02775C10.3698 6.31554 10.4721 6.65388 10.4721 7C10.4721 7.46413 10.2883 7.90925 9.96107 8.23744C9.63384 8.56563 9.19003 8.75 8.72727 8.75Z" fill="black"/>
</svg>
