<svg width="20" height="22" viewBox="0 0 20 22" fill="none" xmlns="http://www.w3.org/2000/svg">
<path opacity="0.5" d="M13.667 11.7101C14.6474 10.9388 15.363 9.88105 15.7143 8.68407C16.0655 7.48709 16.0349 6.21039 15.6268 5.03159C15.2187 3.85279 14.4533 2.83052 13.4371 2.10698C12.4209 1.38344 11.2045 0.994629 9.95703 0.994629C8.70958 0.994629 7.49314 1.38344 6.47696 2.10698C5.46077 2.83052 4.69537 3.85279 4.28724 5.03159C3.87911 6.21039 3.84854 7.48709 4.19979 8.68407C4.55104 9.88105 5.26664 10.9388 6.24703 11.7101C4.56711 12.3832 3.10132 13.4995 2.00592 14.94C0.910526 16.3806 0.226591 18.0914 0.0270279 19.8901C0.0125825 20.0214 0.0241445 20.1543 0.0610534 20.2812C0.0979623 20.408 0.159495 20.5264 0.242139 20.6294C0.409047 20.8376 0.651811 20.971 0.917028 21.0001C1.18224 21.0293 1.44819 20.9519 1.65635 20.785C1.86452 20.6181 1.99785 20.3753 2.02703 20.1101C2.24661 18.1553 3.17871 16.3499 4.64525 15.0389C6.11178 13.7279 8.00993 13.0032 9.97703 13.0032C11.9441 13.0032 13.8423 13.7279 15.3088 15.0389C16.7753 16.3499 17.7074 18.1553 17.927 20.1101C17.9542 20.3558 18.0715 20.5828 18.2561 20.7471C18.4408 20.9115 18.6798 21.0016 18.927 21.0001H19.037C19.2992 20.97 19.5388 20.8374 19.7036 20.6314C19.8684 20.4253 19.9451 20.1625 19.917 19.9001C19.7165 18.0963 19.0289 16.3811 17.9279 14.9383C16.8269 13.4955 15.3539 12.3796 13.667 11.7101ZM9.95703 11.0001C9.1659 11.0001 8.39254 10.7655 7.73475 10.326C7.07695 9.88648 6.56426 9.26176 6.26151 8.53086C5.95876 7.79995 5.87955 6.99569 6.03389 6.21976C6.18823 5.44384 6.56919 4.73111 7.1286 4.1717C7.68801 3.61229 8.40074 3.23132 9.17667 3.07698C9.95259 2.92264 10.7569 3.00186 11.4878 3.30461C12.2187 3.60736 12.8434 4.12005 13.2829 4.77784C13.7224 5.43564 13.957 6.209 13.957 7.00012C13.957 8.06099 13.5356 9.07841 12.7855 9.82855C12.0353 10.5787 11.0179 11.0001 9.95703 11.0001Z" fill="#232323" fill-opacity="0.7"/>
</svg>
