<svg width="24" height="22" viewBox="0 0 24 22" fill="none" xmlns="http://www.w3.org/2000/svg">
<path opacity="0.5" d="M23.9597 8.32198C23.8841 8.11156 23.7464 7.92674 23.5635 7.78993C23.3805 7.65312 23.1602 7.5702 22.9291 7.55122L16.1104 6.59641L13.0546 0.648941C12.9565 0.454445 12.8032 0.290416 12.6125 0.175644C12.4217 0.0608723 12.2012 0 11.9761 0C11.7509 0 11.5304 0.0608723 11.3396 0.175644C11.1489 0.290416 10.9957 0.454445 10.8975 0.648941L7.84168 6.5849L1.02296 7.55122C0.801172 7.58148 0.592658 7.67082 0.421083 7.80909C0.249508 7.94736 0.121742 8.12903 0.0522846 8.33348C-0.0112949 8.53327 -0.0170004 8.74591 0.0357803 8.94858C0.0885611 9.15125 0.197836 9.33629 0.351877 9.48386L5.30114 14.0854L4.10277 20.6195C4.05999 20.8352 4.08239 21.0581 4.16733 21.262C4.25227 21.4658 4.3962 21.6421 4.58212 21.7699C4.76333 21.8943 4.97707 21.9677 5.19934 21.9819C5.4216 21.9961 5.6436 21.9506 5.84041 21.8504L11.9761 18.7789L18.0877 21.8619C18.2559 21.953 18.4459 22.0006 18.639 22C18.8928 22.0009 19.1404 21.9243 19.346 21.7814C19.5319 21.6536 19.6759 21.4773 19.7608 21.2735C19.8458 21.0696 19.8682 20.8467 19.8254 20.631L18.627 14.0969L23.5763 9.49536C23.7493 9.35465 23.8772 9.16969 23.945 8.96199C24.0129 8.75428 24.018 8.53235 23.9597 8.32198ZM16.5898 12.9235C16.4492 13.054 16.3441 13.2155 16.2835 13.394C16.2229 13.5724 16.2088 13.7624 16.2422 13.9473L17.1051 18.7674L12.5992 16.4667C12.4258 16.378 12.2324 16.3317 12.036 16.3317C11.8395 16.3317 11.6461 16.378 11.4727 16.4667L6.96687 18.7674L7.8297 13.9473C7.86318 13.7624 7.84901 13.5724 7.78843 13.394C7.72786 13.2155 7.62271 13.054 7.48217 12.9235L3.88707 9.47236L8.9322 8.77062C9.12633 8.7447 9.31088 8.67346 9.46967 8.56316C9.62845 8.45285 9.75663 8.30683 9.84296 8.13791L11.9761 3.75497L14.229 8.14942C14.3153 8.31834 14.4435 8.46435 14.6023 8.57466C14.7611 8.68497 14.9456 8.7562 15.1397 8.78213L20.1849 9.48386L16.5898 12.9235Z" fill="#232323" fill-opacity="0.7"/>
</svg>
