<svg width="15" height="15" viewBox="0 0 15 15" fill="none" xmlns="http://www.w3.org/2000/svg">
<path d="M7.5 0C6.01664 0 4.56659 0.439867 3.33323 1.26398C2.09986 2.08809 1.13856 3.25943 0.570907 4.62987C0.00324963 6.00032 -0.145275 7.50832 0.144114 8.96317C0.433503 10.418 1.14781 11.7544 2.1967 12.8033C3.2456 13.8522 4.58197 14.5665 6.03683 14.8559C7.49168 15.1453 8.99968 14.9967 10.3701 14.4291C11.7406 13.8614 12.9119 12.9001 13.736 11.6668C14.5601 10.4334 15 8.98336 15 7.5C15 6.51508 14.806 5.53981 14.4291 4.62987C14.0522 3.71993 13.4997 2.89314 12.8033 2.1967C12.1069 1.50026 11.2801 0.947814 10.3701 0.570903C9.46019 0.193993 8.48492 0 7.5 0ZM7.5 13.5C6.31331 13.5 5.15328 13.1481 4.16658 12.4888C3.17989 11.8295 2.41085 10.8925 1.95673 9.7961C1.5026 8.69974 1.38378 7.49334 1.61529 6.32946C1.8468 5.16557 2.41825 4.09647 3.25736 3.25736C4.09648 2.41824 5.16558 1.8468 6.32946 1.61529C7.49335 1.38378 8.69975 1.5026 9.7961 1.95672C10.8925 2.41085 11.8295 3.17988 12.4888 4.16658C13.1481 5.15327 13.5 6.31331 13.5 7.5C13.5 9.0913 12.8679 10.6174 11.7426 11.7426C10.6174 12.8679 9.0913 13.5 7.5 13.5ZM9.825 7.9725L8.25 7.065V3.75C8.25 3.55109 8.17098 3.36032 8.03033 3.21967C7.88968 3.07902 7.69891 3 7.5 3C7.30109 3 7.11032 3.07902 6.96967 3.21967C6.82902 3.36032 6.75 3.55109 6.75 3.75V7.5C6.75 7.5 6.75 7.56 6.75 7.59C6.75444 7.64167 6.7671 7.69231 6.7875 7.74C6.80295 7.7845 6.82306 7.82723 6.8475 7.8675C6.86803 7.91013 6.89318 7.95037 6.9225 7.9875L7.0425 8.085L7.11 8.1525L9.06 9.2775C9.1743 9.34228 9.30362 9.3759 9.435 9.375C9.60106 9.37616 9.76282 9.32217 9.89489 9.2215C10.027 9.12083 10.1219 8.97918 10.1648 8.81874C10.2077 8.65831 10.1961 8.48818 10.1319 8.33503C10.0677 8.18188 9.95448 8.05437 9.81 7.9725H9.825Z" fill="black"/>
</svg>
